<svg width="48" height="48" viewBox="0 0 48 48" fill="none" xmlns="http://www.w3.org/2000/svg">
<path d="M4 22V38M10 32C8.4087 32 6.88258 32.6321 5.75736 33.7574C4.63214 34.8826 4 36.4087 4 38C4 39.5913 4.63214 41.1174 5.75736 42.2426C6.88258 43.3679 8.4087 44 10 44C11.5913 44 13.1174 43.3679 14.2426 42.2426C15.3679 41.1174 16 39.5913 16 38C16 36.4087 15.3679 34.8826 14.2426 33.7574C13.1174 32.6321 11.5913 32 10 32V32ZM10 2C29.85 2 46 18.15 46 38L10 2ZM36 38C36 23.664 24.336 12 10 12L36 38ZM26 38C26 29.178 18.822 22 10 22L26 38Z" stroke="#1E2914" stroke-width="4"/>
</svg>
