<svg width="48" height="48" viewBox="0 0 48 48" fill="none" xmlns="http://www.w3.org/2000/svg">
<path d="M29.1698 24.15C29.6855 23.3032 30.2184 22.4277 30.7448 21.525C32.5068 18.5046 32.8301 15.4611 31.7062 12.4791C29.4382 6.46246 21.8571 2.79655 20.102 2.21164L18.8678 1.79999L16.9417 5.65311L17.8712 6.41249C17.8816 6.42083 18.9141 7.32299 18.9829 8.69061C19.0417 9.85808 18.4016 11.1197 17.0811 12.4406C16.164 13.3576 15.1575 14.2443 14.0918 15.1829C9.60815 19.1315 4.52625 23.6081 4.52625 32.0769C4.52625 32.1932 4.52734 32.3089 4.52953 32.4238C4.56202 34.2926 4.9634 36.1366 5.71061 37.8499C6.45783 39.5632 7.53615 41.1119 8.88365 42.4072C11.5895 45.0391 15.2175 46.508 18.9922 46.5H27.6265L26.5607 44.337C22.2301 35.5478 25.2926 30.518 29.1698 24.15ZM18.9922 43.5C12.7859 43.5 7.64371 38.5062 7.52896 32.3682C7.52721 32.2716 7.52631 32.1745 7.52625 32.0769C7.52625 24.9634 11.8721 21.1351 16.0749 17.4332C17.1286 16.5051 18.2182 15.5452 19.2023 14.561C21.148 12.6154 22.0822 10.5892 21.9791 8.53921C21.9341 7.67043 21.7035 6.82138 21.3028 6.04921C23.9128 7.47524 27.6331 10.1792 28.8991 13.5377C29.7001 15.6625 29.4562 17.7808 28.1537 20.0138C27.6413 20.8922 27.1157 21.7553 26.6075 22.5902C22.8874 28.6998 19.3584 34.4946 22.9088 43.5H18.9922Z" fill="#1E2914"/>
<path d="M43.8977 31.9808C43.8727 31.8817 43.8467 31.7822 43.8195 31.6822C42.7371 27.7136 36.7454 22.6108 36.0659 22.042L34.7011 20.9L33.8062 22.4382C31.7669 25.9445 30.0167 29.1425 29.2538 32.7706C28.3839 36.9081 28.9694 41.1133 31.0444 45.6265L31.4458 46.5H32.4656C34.2618 46.5052 36.0352 46.0979 37.6492 45.3096C39.2632 44.5213 40.6747 43.373 41.7749 41.9531C42.8684 40.5643 43.6285 38.9429 43.9965 37.2139C44.3646 35.485 44.3308 33.6947 43.8977 31.9808ZM39.409 40.1074C38.6819 41.0461 37.7713 41.8269 36.7327 42.4023C35.694 42.9777 34.5491 43.3356 33.3677 43.4542C30.4108 36.3386 32.1554 31.4885 35.4893 25.5373C37.7057 27.5992 40.4069 30.5707 40.9252 32.4712C40.947 32.5513 40.9679 32.6311 40.9879 32.7106C41.3084 33.9821 41.3328 35.3103 41.059 36.5927C40.7853 37.8751 40.2208 39.0775 39.409 40.1074Z" fill="#1E2914"/>
</svg>
