<svg width="48" height="48" viewBox="0 0 48 48" fill="none" xmlns="http://www.w3.org/2000/svg">
<path d="M44.64 14.3401C44.3979 13.3926 44.0243 12.4838 43.53 11.6401C43.0552 10.7623 42.4481 9.96297 41.73 9.27005C40.6889 8.23245 39.456 7.40714 38.1 6.84005C35.3704 5.71982 32.3095 5.71982 29.58 6.84005C28.2983 7.38257 27.1207 8.14392 26.1 9.09005L25.95 9.27005L24 11.2201L22.05 9.27005L21.9 9.09005C20.8792 8.14392 19.7017 7.38257 18.42 6.84005C15.6904 5.71982 12.6295 5.71982 9.89997 6.84005C8.54392 7.40714 7.31105 8.23245 6.26997 9.27005C4.84606 10.6555 3.83808 12.4117 3.35997 14.3401C3.10561 15.3193 2.98452 16.3284 2.99997 17.3401C2.99997 18.2911 3.11997 19.239 3.35997 20.1601C3.61147 21.0902 3.97408 21.9866 4.43997 22.8301C4.94311 23.6971 5.55842 24.4939 6.26997 25.2001L24 42.9301L41.73 25.2001C42.441 24.501 43.05 23.7001 43.53 22.8301C44.5043 21.1654 45.0121 19.2689 45 17.3401C45.0155 16.3284 44.8944 15.3193 44.64 14.3401ZM41.64 19.2301C41.2806 20.6008 40.5667 21.8528 39.57 22.8601L23.94 38.4601L8.30997 22.8601C7.80064 22.3471 7.35722 21.7727 6.98997 21.1501C6.64439 20.5341 6.37252 19.8796 6.17997 19.2001C6.02625 18.5206 5.94579 17.8266 5.93997 17.1301C5.94404 16.4135 6.02449 15.6995 6.17997 15.0001C6.36687 14.3186 6.63902 13.6634 6.98997 13.0501C7.34997 12.4201 7.79397 11.8501 8.30997 11.3401C9.08066 10.5797 9.98605 9.9693 10.98 9.54005C12.9828 8.73882 15.2171 8.73882 17.22 9.54005C18.21 9.95105 19.104 10.5541 19.86 11.3101L23.94 15.4201L28.02 11.3101C28.7754 10.5527 29.6725 9.9513 30.66 9.54005C32.6628 8.73882 34.8971 8.73882 36.9 9.54005C37.893 9.96905 38.799 10.5811 39.57 11.3401C40.092 11.8351 40.53 12.4111 40.86 13.0501C41.5548 14.2754 41.9168 15.6614 41.91 17.0701C41.9508 17.7949 41.8902 18.5219 41.73 19.2301H41.64Z" fill="#1E2914"/>
</svg>
